<?xml version="1.0" encoding="UTF-8" standalone="no"?>
<!-- Created with Inkscape (http://www.inkscape.org/) -->

<svg
   width="188.02147mm"
   height="115.95681mm"
   viewBox="0 0 188.02147 115.95681"
   version="1.1"
   id="svg1"
   inkscape:version="1.4 (86a8ad7, 2024-10-11)"
   sodipodi:docname="HC Logo.svg"
   inkscape:export-filename="HC Logo2.svg"
   inkscape:export-xdpi="96"
   inkscape:export-ydpi="96"
   xmlns:inkscape="http://www.inkscape.org/namespaces/inkscape"
   xmlns:sodipodi="http://sodipodi.sourceforge.net/DTD/sodipodi-0.dtd"
   xmlns="http://www.w3.org/2000/svg"
   xmlns:svg="http://www.w3.org/2000/svg">
  <sodipodi:namedview
     id="namedview1"
     pagecolor="#ffffff"
     bordercolor="#000000"
     borderopacity="0.25"
     inkscape:showpageshadow="2"
     inkscape:pageopacity="0.0"
     inkscape:pagecheckerboard="0"
     inkscape:deskcolor="#d1d1d1"
     inkscape:document-units="mm"
     inkscape:zoom="1.0267829"
     inkscape:cx="433.87945"
     inkscape:cy="657.88006"
     inkscape:window-width="1920"
     inkscape:window-height="1017"
     inkscape:window-x="1912"
     inkscape:window-y="-8"
     inkscape:window-maximized="1"
     inkscape:current-layer="layer1">
    <inkscape:page
       x="0"
       y="0"
       width="188.02147"
       height="115.95681"
       id="page2"
       margin="0"
       bleed="0" />
  </sodipodi:namedview>
  <defs
     id="defs1">
    <rect
       x="118.44993"
       y="834.65881"
       width="132.22318"
       height="66.111595"
       id="rect5" />
    <rect
       x="118.44993"
       y="834.65881"
       width="132.22318"
       height="66.111595"
       id="rect7" />
    <filter
       inkscape:collect="always"
       style="color-interpolation-filters:sRGB"
       id="filter7"
       x="-0.0379805"
       y="-0.09760931"
       width="1.075961"
       height="1.1952186">
      <feGaussianBlur
         inkscape:collect="always"
         stdDeviation="1.3717341"
         id="feGaussianBlur7" />
    </filter>
    <filter
       inkscape:collect="always"
       style="color-interpolation-filters:sRGB"
       id="filter8"
       x="-0.073590514"
       y="-0.19965048"
       width="1.147181"
       height="1.399301">
      <feGaussianBlur
         inkscape:collect="always"
         stdDeviation="3.2607097"
         id="feGaussianBlur8" />
    </filter>
  </defs>
  <g
     inkscape:label="Layer 1"
     inkscape:groupmode="layer"
     id="layer1"
     style="opacity:1"
     transform="translate(-9.4843749,-86.695313)">
    <path
       id="path29"
       style="opacity:1;fill:#dad7cd;fill-opacity:1;stroke-width:0.264583"
       d="m 103.49609,86.695312 c -2.58682,10e-7 -5.174918,0.157049 -7.742184,0.47461 L 19.611328,96.589844 C 14.083167,97.274133 9.4852075,102.47652 9.484375,108.04688 v 73.2539 c 8.326e-4,5.57035 4.598792,10.77274 10.126953,11.45703 l 76.142578,9.41797 c 5.134534,0.63512 10.347894,0.63512 15.482424,0 l 76.14062,-9.41797 c 5.52911,-0.68308 10.12792,-5.88588 10.12891,-11.45703 v -73.2539 c -9.9e-4,-5.57115 -4.5998,-10.773951 -10.12891,-11.457036 l -76.14062,-9.419922 c -2.56727,-0.317561 -5.15341,-0.47461 -7.74024,-0.47461 z"
       inkscape:export-filename="HCLogo.svg"
       inkscape:export-xdpi="96"
       inkscape:export-ydpi="96" />
    <path
       id="path1"
       style="opacity:1;fill:#88d1ff;fill-opacity:1;stroke-width:0.264583"
       d="m 110.84679,90.311422 76.14221,9.418193 a 8.3811433,8.3811433 0 0 1 7.3523,8.317755 v 73.2525 a 8.3811428,8.3811428 0 0 1 -7.3523,8.31775 l -76.14222,9.41819 a 59.893361,59.893361 0 0 1 -14.704604,0 l -76.142211,-9.41819 a 8.3811425,8.3811425 0 0 1 -7.352302,-8.31775 l 2e-6,-73.2525 a 8.3811435,8.3811435 0 0 1 7.352303,-8.317755 L 96.14218,90.311422 a 59.893334,59.893334 0 0 1 14.70461,0 z"
       sodipodi:nodetypes="ccccccc" />
    <path
       id="rect1"
       style="opacity:1;fill:#3a5a40;fill-opacity:1;stroke-width:0.264583"
       d="m -107.07595,6.9348179 a 2.3812499,2.3812499 0 0 0 -0.31937,1.1904978 l 3.7e-4,32.3710903 8.56369,2.86918 h -8.56369 -22.87159 a 2.3812499,2.3812499 0 0 0 -2.38136,2.381361 l 3.6e-4,37.968403 28.33151,28.33151 a 8.3811425,8.3811425 0 0 0 11.07989,0.68258 L -32.735611,65.548748 A 59.893361,59.893361 0 0 0 -22.337573,55.15071 L 24.84312,-5.3498188 A 8.3811428,8.3811428 0 0 0 24.160538,-16.429707 L -8.8094546,-49.3997 H -27.19384 a 2.3812499,2.3812499 0 0 0 -2.381361,2.381361 v 33.659152 l 8.563692,2.86918 h -8.563692 l -20.552348,3.66e-4 a 2.3812499,2.3812499 0 0 0 -2.380995,2.3809952 V 2.8747745 l 8.563691,2.8691802 h -8.563691 -52.505416 a 2.3812499,2.3812499 0 0 0 -2.06199,1.1908632 z"
       transform="rotate(45,-129.4301,287.86129)" />
    <path
       id="path20"
       style="opacity:1;fill:#88d1ff;fill-opacity:1;stroke-width:1.00503"
       inkscape:transform-center-x="-1.2675471"
       inkscape:transform-center-y="-0.11351968"
       d="m 133.11694,148.75681 c -20.45065,5.17706 -34.397848,9.40224 -42.995826,12.83333 -9.622688,3.83999 -12.506386,6.64603 -10.806059,8.74107 3.391151,4.17849 31.178115,4.55164 46.403885,6.57737 16.19813,2.1551 42.28466,2.1821 47.78882,5.94331 3.05236,2.0858 1.2969,5.05056 -8.13336,9.43922 l 5.58622,-0.69092 c 15.89365,-6.02076 19.78106,-9.82585 16.6703,-12.36824 -4.70463,-3.845 -25.4757,-4.96588 -46.44884,-6.12262 -21.48259,-1.18483 -43.174352,-2.40692 -47.054492,-6.52415 -1.946266,-2.06526 0.656541,-4.83445 9.978202,-8.62118 6.36196,-2.5844 15.89752,-5.63559 29.01115,-9.20719 z" />
    <path
       id="rect23"
       style="opacity:1;fill:#588157;fill-opacity:1;stroke:#000000;stroke-width:0.014748"
       d="m 180.48924,172.46751 -4.55528,9.93221 h 0.77877 l -2.82102,4.31757 h 1.86707 l -3.27784,4.08088 h 4.96198 l 9.54618,-1.1808 a 8.3811428,8.3811428 0 0 0 0.38809,-0.12144 l -2.23139,-2.77864 h 1.71825 l -2.82102,-4.31757 h 1.00201 z" />
    <path
       id="path24"
       style="opacity:1;fill:#588157;fill-opacity:1;stroke:#000000;stroke-width:0.014748"
       d="m 162.9668,177.10599 -4.55528,9.93169 h 0.77876 l -2.82101,4.31808 h 1.86707 l -1.62161,2.019 11.4887,-1.4211 -0.48007,-0.5979 h 1.71824 l -2.82101,-4.31808 h 1.002 z" />
    <text
       xml:space="preserve"
       transform="matrix(1.4960182,0,0,1.4960182,-143.63402,-1163.6959)"
       id="text7"
       style="font-style:normal;font-variant:normal;font-weight:normal;font-stretch:normal;font-size:48px;font-family:Feltful;-inkscape-font-specification:'Feltful, Normal';font-variant-ligatures:normal;font-variant-caps:normal;font-variant-numeric:normal;font-variant-east-asian:normal;text-align:start;writing-mode:lr-tb;direction:ltr;white-space:pre;shape-inside:url(#rect7);opacity:0.473418;fill:#000000;stroke:#000000;stroke-width:0.377953;filter:url(#filter7)"><tspan
         x="118.44922"
         y="879.3582"
         id="tspan2"><tspan
           style="font-family:'League Gothic';-inkscape-font-specification:'League Gothic, Normal'"
           id="tspan1">Holston</tspan></tspan></text>
    <text
       xml:space="preserve"
       transform="matrix(1.4960182,0,0,1.4960182,-143.63402,-1163.6959)"
       id="text5"
       style="font-style:normal;font-variant:normal;font-weight:normal;font-stretch:normal;font-size:48px;font-family:Feltful;-inkscape-font-specification:'Feltful, Normal';font-variant-ligatures:normal;font-variant-caps:normal;font-variant-numeric:normal;font-variant-east-asian:normal;text-align:start;writing-mode:lr-tb;direction:ltr;white-space:pre;shape-inside:url(#rect5);opacity:1;fill:#dad7cd;fill-opacity:1;stroke:#000000;stroke-width:0.377953"><tspan
         x="118.44922"
         y="879.3582"
         id="tspan4"><tspan
           style="font-family:'League Gothic';-inkscape-font-specification:'League Gothic, Normal'"
           id="tspan3">Holston</tspan></tspan></text>
    <text
       xml:space="preserve"
       style="font-style:normal;font-variant:normal;font-weight:normal;font-stretch:normal;font-size:42.6388px;font-family:'League Gothic';-inkscape-font-specification:'League Gothic, Normal';font-variant-ligatures:normal;font-variant-caps:normal;font-variant-numeric:normal;font-variant-east-asian:normal;text-align:start;writing-mode:lr-tb;direction:ltr;text-anchor:start;opacity:0.465823;fill:#000000;stroke:#000000;stroke-width:0.335739;filter:url(#filter8)"
       x="49.196476"
       y="184.68286"
       id="text8"><tspan
         sodipodi:role="line"
         id="tspan8"
         style="fill:#000000;stroke-width:0.335739"
         x="49.196476"
         y="184.68286">Carpentry</tspan></text>
    <text
       xml:space="preserve"
       style="font-style:normal;font-variant:normal;font-weight:normal;font-stretch:normal;font-size:42.6388px;font-family:'League Gothic';-inkscape-font-specification:'League Gothic, Normal';font-variant-ligatures:normal;font-variant-caps:normal;font-variant-numeric:normal;font-variant-east-asian:normal;text-align:start;writing-mode:lr-tb;direction:ltr;text-anchor:start;opacity:1;fill:#dad7cd;fill-opacity:1;stroke:#000000;stroke-width:0.335739"
       x="49.196476"
       y="184.68286"
       id="text6"><tspan
         sodipodi:role="line"
         id="tspan6"
         style="fill:#dad7cd;fill-opacity:1;stroke-width:0.335739"
         x="49.196476"
         y="184.68286">Carpentry</tspan></text>
  </g>
</svg>
